<svg xmlns="http://www.w3.org/2000/svg" version="1.1" xmlns:xlink="http://www.w3.org/1999/xlink" xmlns:svgjs="http://svgjs.dev/svgjs" width="1000" height="1000" viewBox="0 0 1000 1000"><rect width="1000" height="1000" fill="#000000"></rect><g transform="matrix(0.7,0,0,0.7,149.57575757575756,282.1265587044535)"><svg viewBox="0 0 396 247" data-background-color="#ffffff" preserveAspectRatio="xMidYMid meet" height="623" width="1000" xmlns="http://www.w3.org/2000/svg" xmlns:xlink="http://www.w3.org/1999/xlink"><g id="tight-bounds" transform="matrix(1,0,0,1,0.2400000000000091,-0.09999999999999432)"><svg viewBox="0 0 395.52 247.2" height="247.2" width="395.52"><g><svg></svg></g><g><svg viewBox="0 0 395.52 247.2" height="247.2" width="395.52"><g transform="matrix(1,0,0,1,129.7011432,47.215199999999996)"><svg viewBox="0 0 136.11771359999997 152.7696" height="152.7696" width="136.11771359999997"><g><svg viewBox="0 0 136.11771359999997 152.7696" height="152.7696" width="136.11771359999997"><g><svg viewBox="0 0 136.11771359999997 152.7696" height="152.7696" width="136.11771359999997"><g><svg viewBox="0 0 136.11771359999997 152.7696" height="152.7696" width="136.11771359999997"><g id="textblocktransform"><svg viewBox="0 0 136.11771359999997 152.7696" height="152.7696" width="136.11771359999997" id="textblock"><g><svg viewBox="0 0 136.11771359999997 152.7696" height="152.7696" width="136.11771359999997"><g transform="matrix(1,0,0,1,0,0)"><svg width="136.11771359999997" viewBox="3.0999999046325684 -37.5 44.540000915527344 50" height="152.7696" data-palette-color="#61777f"><path d="M18.1 0L3.1 0 3.1-35 18.1-35Q19.55-35 20.6-33.95 21.65-32.9 21.65-31.4L21.65-31.4 21.65-3.6Q21.65-2.1 20.6-1.05 19.55 0 18.1 0L18.1 0ZM7.75-30.35L7.75-4.65 15.25-4.65Q15.95-4.65 16.5-5.18 17.05-5.7 17.05-6.45L17.05-6.45 17.05-28.55Q17.05-29.3 16.5-29.83 15.95-30.35 15.25-30.35L15.25-30.35 7.75-30.35ZM29.45-32.8L24.75-31.7 24.75-36.4 29.45-37.5 29.45-32.8ZM29.55 0L24.85 0 24.85-23.9 29.55-25 29.55 0ZM38.24 12.5L33.55 12.5 33.55-25 43.99-25Q45.55-25 46.59-23.95 47.64-22.9 47.64-21.35L47.64-21.35 47.64-3.65Q47.64-2.1 46.59-1.05 45.55 0 43.99 0L43.99 0 38.24 0 38.24 12.5ZM38.24-20.3L38.24-4.7 41.14-4.7Q41.84-4.7 42.39-5.25 42.95-5.8 42.95-6.5L42.95-6.5 42.95-18.45Q42.95-19.3 42.39-19.8 41.84-20.3 41.14-20.3L41.14-20.3 38.24-20.3Z" opacity="1" transform="matrix(1,0,0,1,0,0)" fill="#ffffff" class="undefined-text-0" data-fill-palette-color="primary" id="text-0"></path></svg></g></svg></g></svg></g></svg></g></svg></g></svg></g></svg></g><path d="M312.002 41.215L312.002 0 64.802 0 64.802 247.2 312.002 247.2 312.002 205.985 298.226 205.985 298.226 233.423 78.579 233.423 78.579 13.777 298.226 13.777 298.226 41.215Z" fill="#ffffff" stroke="transparent" data-fill-palette-color="primary"></path></svg></g><defs></defs></svg><rect width="395.52" height="247.2" fill="none" stroke="none" visibility="hidden"></rect></g></svg></g></svg>